<svg xmlns="http://www.w3.org/2000/svg" version="1.1" xmlns:xlink="http://www.w3.org/1999/xlink" xmlns:svgjs="http://svgjs.com/svgjs" width="1920" height="2160" preserveAspectRatio="none" viewBox="0 0 1920 2160">
  <g mask="url(&quot;#SvgjsMask1037&quot;)" fill="none">
    <path d="M1920 0L1396.35 0L1920 399.34z" fill="rgba(255, 255, 255, .1)"></path>
    <path d="M1396.35 0L1920 399.34L1920 705.8399999999999L1327.31 0z" fill="rgba(255, 255, 255, .075)"></path>
    <path d="M1327.31 0L1920 705.8399999999999L1920 931.1099999999999L1214.81 0z" fill="rgba(255, 255, 255, .05)"></path>
    <path d="M1214.81 0L1920 931.1099999999999L1920 1018.8299999999999L690.9399999999999 0z" fill="rgba(255, 255, 255, .025)"></path>
    <path d="M0 1080L818.82 1080L0 995.01z" fill="rgba(0, 0, 0, .1)"></path>
    <path d="M0 995.01L818.82 1080L1236.8700000000001 1080L0 714.37z" fill="rgba(0, 0, 0, .075)"></path>
    <path d="M0 714.37L1236.8700000000001 1080L1358.5300000000002 1080L0 628.89z" fill="rgba(0, 0, 0, .05)"></path>
    <path d="M0 628.89L1358.5300000000002 1080L1491.5400000000002 1080L0 345.78999999999996z" fill="rgba(0, 0, 0, .025)"></path>
  </g>
  <g transform="translate(0 2160) scale(1 -1)" mask="url(&quot;#SvgjsMask1037&quot;)" fill="none">
    <path d="M1920 0L1396.35 0L1920 399.34z" fill="rgba(255, 255, 255, .1)"></path>
    <path d="M1396.35 0L1920 399.34L1920 705.8399999999999L1327.31 0z" fill="rgba(255, 255, 255, .075)"></path>
    <path d="M1327.31 0L1920 705.8399999999999L1920 931.1099999999999L1214.81 0z" fill="rgba(255, 255, 255, .05)"></path>
    <path d="M1214.81 0L1920 931.1099999999999L1920 1018.8299999999999L690.9399999999999 0z" fill="rgba(255, 255, 255, .025)"></path>
    <path d="M0 1080L818.82 1080L0 995.01z" fill="rgba(0, 0, 0, .1)"></path>
    <path d="M0 995.01L818.82 1080L1236.8700000000001 1080L0 714.37z" fill="rgba(0, 0, 0, .075)"></path>
    <path d="M0 714.37L1236.8700000000001 1080L1358.5300000000002 1080L0 628.89z" fill="rgba(0, 0, 0, .05)"></path>
    <path d="M0 628.89L1358.5300000000002 1080L1491.5400000000002 1080L0 345.78999999999996z" fill="rgba(0, 0, 0, .025)"></path>
  </g>
  <defs>
    <mask id="SvgjsMask1037">
      <rect width="1920" height="1080" fill="#ffffff"></rect>
    </mask>
  </defs>
</svg>